<?xml version="1.0" encoding="UTF-8"?>
<svg id="Layer_2" data-name="Layer 2" xmlns="http://www.w3.org/2000/svg" viewBox="0 0 265.98 312.81">
  <g id="Layer_1-2" data-name="Layer 1">
    <g>
      <path d="M29.94,156.4l.17,60.5,51.41,30.25v35.42L.02,234.78v-96.07l29.92,17.69h0ZM29.94,95.9v35.26L0,113.45v-35.26l29.94-17.71,30.09,17.71-30.09,17.71h0ZM102.98,78.19l29.94-17.71,30.09,17.71-30.09,17.71-29.94-17.71h0Z"/>
      <path d="M51.57,204.36v-35.42l29.94,17.71v35.26l-29.94-17.55h0ZM102.98,259.84l29.94,17.71,30.09-17.71v35.26l-30.09,17.71-29.94-17.71v-35.26h0ZM205.94,78.19l29.94-17.71,30.09,17.71v35.26l-30.09,17.71v-35.26l-29.94-17.71h0ZM235.88,216.9l.17-60.5,29.94-17.71v96.07l-81.49,47.8v-35.42l51.39-30.23h0Z"/>
      <polygon points="214.41 204.36 184.47 221.91 184.47 186.65 214.41 168.94 214.41 204.36"/>
      <path d="M214.41,108.44l.17,35.42-51.55,30.25v60.65l-29.94,17.55-29.94-17.55v-60.65l-51.55-30.25v-35.42l30.07-17.71,51.24,30.4,51.55-30.4,30.09,17.71h-.13ZM51.57,47.96L132.92,0l81.49,47.96-29.94,17.71-51.55-30.4-51.41,30.4-29.94-17.71h0Z"/>
    </g>
  </g>
</svg>