<?xml version="1.0" encoding="UTF-8"?>
<svg id="Layer_2" data-name="Layer 2" xmlns="http://www.w3.org/2000/svg" viewBox="0 0 228.54 302.52">
  <g id="Layer_1-2" data-name="Layer 1">
    <path d="M227.94,121.61c4.75-31.79-19.45-48.87-52.54-60.27l10.74-43.06-26.21-6.53-10.45,41.93c-6.89-1.72-13.97-3.34-21-4.94l10.53-42.2L112.8,0l-10.74,43.04c-5.7-1.3-11.3-2.58-16.74-3.93l.03-.14-36.15-9.03-6.97,28s19.45,4.46,19.04,4.73c10.61,2.65,12.53,9.68,12.21,15.24l-12.23,49.05c.73.19,1.68.45,2.73.87-.87-.22-1.81-.45-2.77-.69l-17.14,68.72c-1.3,3.22-4.59,8.06-12.01,6.23.26.38-19.05-4.75-19.05-4.75L0,227.36l34.11,8.5c6.35,1.59,12.56,3.26,18.69,4.82l-10.85,43.55,26.18,6.53,10.74-43.09c7.15,1.94,14.09,3.73,20.89,5.42l-10.71,42.89,26.21,6.53,10.85-43.47c44.7,8.46,78.3,5.05,92.45-35.38,11.4-32.55-.57-51.32-24.08-63.57,17.13-3.95,30.03-15.21,33.47-38.48h0s0,0,0,0ZM168.05,205.59c-8.1,32.55-62.9,14.95-80.67,10.54l14.39-57.7c17.77,4.44,74.74,13.21,66.28,47.16h0ZM176.16,121.14c-7.39,29.61-53,14.57-67.8,10.88l13.05-52.33c14.8,3.69,62.45,10.57,54.75,41.45h0Z"/>
  </g>
</svg>