<?xml version="1.0" encoding="UTF-8"?>
<svg id="Layer_2" data-name="Layer 2" xmlns="http://www.w3.org/2000/svg" viewBox="0 0 324.6 288.1">
  <defs>
    <style>
      .cls-1 {
        fill-rule: evenodd;
      }
    </style>
  </defs>
  <g id="Layer_1-2" data-name="Layer 1">
    <g>
      <path class="cls-1" d="M81.47,288.1H26.89c-11.47,0-17.13,0-20.59-2.21-3.73-2.42-6.01-6.43-6.29-10.85-.21-4.07,2.63-9.05,8.29-19L143.07,18.5c5.73-10.09,8.64-15.13,12.3-17,3.94-2,8.64-2,12.57,0,3.66,1.87,6.56,6.91,12.3,17l27.7,48.36.14.25c6.19,10.82,9.33,16.31,10.71,22.07,1.52,6.29,1.52,12.92,0,19.21-1.38,5.8-4.49,11.33-10.78,22.32l-70.79,125.13-.18.32c-6.23,10.91-9.39,16.44-13.77,20.61-4.77,4.56-10.5,7.88-16.79,9.74-5.73,1.59-12.16,1.59-25.01,1.59Z"/>
      <path class="cls-1" d="M219.3,288.1h78.21c11.54,0,17.34,0,20.8-2.28,3.73-2.42,6.08-6.5,6.29-10.92.2-3.94-2.57-8.73-8-18.1-.19-.32-.37-.64-.57-.97l-39.17-67.02-.45-.75c-5.5-9.31-8.28-14.01-11.85-15.83-3.94-2-8.57-2-12.5,0-3.59,1.87-6.49,6.77-12.23,16.65l-39.04,67.02-.13.23c-5.71,9.86-8.57,14.79-8.36,18.84.28,4.42,2.56,8.5,6.29,10.92,3.39,2.21,9.19,2.21,20.73,2.21Z"/>
    </g>
  </g>
</svg>