<?xml version="1.0" encoding="UTF-8"?>
<svg id="Layer_2" data-name="Layer 2" xmlns="http://www.w3.org/2000/svg" viewBox="0 0 324.6 170.77">
  <g id="Layer_1-2" data-name="Layer 1">
    <g>
      <path d="M64.09,170.77c-18.83,0-34.25-4.42-46.26-13.27C5.94,148.52,0,135.63,0,119.07c0-3.54.38-7.71,1.14-12.77,2.02-11.38,4.93-25.03,8.72-41.08C20.6,21.74,48.41,0,93.16,0c12.13,0,23.13,2.02,32.74,6.19,9.61,3.92,17.19,9.99,22.75,18.08,5.56,7.96,8.34,17.44,8.34,28.44,0,3.29-.38,7.46-1.14,12.51-2.4,14.03-5.18,27.81-8.6,41.08-5.56,21.61-15.04,37.92-28.69,48.66-13.53,10.62-31.73,15.8-54.48,15.8ZM67.5,136.64c8.85,0,16.31-2.65,22.5-7.84,6.32-5.18,10.87-13.15,13.52-24.02,3.67-14.92,6.45-27.81,8.34-38.93.63-3.29,1.01-6.7,1.01-10.24,0-14.41-7.46-21.61-22.5-21.61-8.85,0-16.43,2.65-22.75,7.84-6.19,5.18-10.62,13.15-13.27,24.02-2.91,10.62-5.69,23.51-8.6,38.93-.63,3.16-1.01,6.45-1.01,9.99-.13,14.66,7.58,21.87,22.75,21.87Z"/>
      <path d="M167.99,168.49c-1.77,0-3.03-.51-4.04-1.64-.76-1.26-1.01-2.65-.76-4.3L195.92,8.34c.25-1.77,1.14-3.16,2.65-4.3,1.39-1.14,2.91-1.64,4.55-1.64h63.07c17.57,0,31.6,3.67,42.22,10.87,10.74,7.33,16.18,17.82,16.18,31.6,0,3.92-.51,8.09-1.39,12.39-3.92,18.2-11.88,31.6-24.02,40.32-11.88,8.72-28.19,13.02-48.92,13.02h-31.98l-10.87,51.95c-.38,1.77-1.14,3.16-2.65,4.3-1.39,1.14-2.91,1.64-4.55,1.64h-32.23ZM251.92,77.86c6.7,0,12.39-1.77,17.32-5.44,5.06-3.67,8.34-8.85,9.99-15.67.51-2.65.76-5.06.76-7.08,0-4.55-1.39-8.09-4.04-10.49-2.65-2.53-7.33-3.79-13.78-3.79h-28.44l-8.97,42.47h27.18Z"/>
    </g>
  </g>
</svg>