<?xml version="1.0" encoding="UTF-8"?>
<svg id="Layer_2" data-name="Layer 2" xmlns="http://www.w3.org/2000/svg" viewBox="0 0 274.57 309.51">
  <defs>
    <style>
      .cls-1 {
        fill: #111;
      }
    </style>
  </defs>
  <g id="Layer_1-2" data-name="Layer 1">
    <g>
      <path class="cls-1" d="M137.16,0s.04,0,.06,0c.02,0,.04,0,.06,0h-.12Z"/>
      <path class="cls-1" d="M262.8,68.77L148.93,3.1C145.36,1,141.29.01,137.22,0c-4.07,0-8.01,1-11.71,3.1L11.77,68.77c-7.31,4.21-11.77,11.89-11.77,20.32v131.34c0,8.43,4.46,16.11,11.77,20.32l20.37,11.76-.05.13,29.86,17.22.04-.12.04.02,6.67-18.21-.06-.03,61.45-168.38c.62-1.73-.62-3.47-2.35-3.47l-.12.12h-28.87c-2.11,0-4.09,1.36-4.83,3.35l-55.13,151.14-17.35-10.02c-1.36-.74-2.11-2.23-2.11-3.72V89.09c0-1.49.87-2.97,2.11-3.72L135.18,19.7c.62-.37,1.36-.62,2.11-.62v.12c.74,0,1.49.25,2.11.62l113.74,65.67c1.36.74,2.11,2.23,2.11,3.72v131.34c0,1.49-.87,2.97-2.11,3.72l-17.25,9.96-45.57-124.82v-.12c-.87-2.23-3.96-2.23-4.83,0l-14.99,41.14c-.37,1.12-.37,2.35,0,3.59l35.54,97.45-11.87,6.86-29.12-79.89c-.87-2.23-3.96-2.23-4.83,0l-14.99,41.14c-.37,1.12-.37,2.35,0,3.59l19.09,52.4-24.91,14.38c-.62.37-1.36.62-2.11.62s-1.49-.25-2.11-.62l-24.81-14.32,70.15-192.47c.62-1.73-.62-3.47-2.35-3.47v.12h-28.87c-2.11,0-4.09,1.36-4.83,3.35l-70.62,193.53,29.86,17.22.02-.06,21.78,12.58c3.59,2.11,7.68,3.1,11.77,3.1s8.05-.99,11.77-3.1l21.89-12.64.04.12,29.86-17.22-.05-.14,11.88-6.86.07.18,29.86-17.22-.07-.19,20.27-11.7c7.31-4.21,11.77-11.89,11.77-20.32V89.09c0-8.43-4.46-16.11-11.77-20.32Z"/>
    </g>
  </g>
</svg>