<?xml version="1.0" encoding="UTF-8"?>
<svg id="Layer_2" data-name="Layer 2" xmlns="http://www.w3.org/2000/svg" viewBox="0 0 324.6 254.38">
  <defs>
    <style>
      .cls-1 {
        fill: #111;
      }
    </style>
  </defs>
  <g id="Layer_1-2" data-name="Layer 1">
    <g>
      <path class="cls-1" d="M52.74,194.15c1.96-1.96,4.65-3.1,7.51-3.1h259.03c4.73,0,7.1,5.71,3.75,9.06l-51.17,51.17c-1.96,1.96-4.65,3.1-7.51,3.1H5.32c-4.73,0-7.1-5.71-3.75-9.06l51.17-51.17Z"/>
      <path class="cls-1" d="M52.74,3.1c2.04-1.96,4.73-3.1,7.51-3.1h259.03c4.73,0,7.1,5.71,3.75,9.06l-51.17,51.17c-1.96,1.96-4.65,3.1-7.51,3.1H5.32c-4.73,0-7.1-5.71-3.75-9.06L52.74,3.1Z"/>
      <path class="cls-1" d="M271.86,98.01c-1.96-1.96-4.65-3.1-7.51-3.1H5.32c-4.73,0-7.1,5.71-3.75,9.06l51.17,51.17c1.96,1.96,4.65,3.1,7.51,3.1h259.03c4.73,0,7.1-5.71,3.75-9.06l-51.17-51.17Z"/>
    </g>
  </g>
</svg>