<?xml version="1.0" encoding="UTF-8"?>
<svg id="Layer_2" data-name="Layer 2" xmlns="http://www.w3.org/2000/svg" viewBox="0 0 244.63 312.17">
  <g id="Layer_1-2" data-name="Layer 1">
    <path id="Shape" d="M108.73,2.99c7.54-3.99,19.07-3.99,26.61,0l77.16,40.68c4.56,2.41,7.06,5.96,7.5,9.69h.09v204.47c-.09,4.03-2.63,8.02-7.58,10.65l-77.16,40.68c-7.54,3.99-19.07,3.99-26.61,0l-77.16-40.68c-4.91-2.59-7.28-6.62-7.41-10.65V53.41h.04c.35-3.73,2.72-7.23,7.37-9.69L108.73,2.99ZM207.81,167.05l-72.51,38.36c-7.54,3.99-19.03,3.99-26.61,0l-72.34-38.27v90.09l72.34,38.05c4.3,2.28,8.72,4.52,13.06,4.6h.26c4.34,0,8.51-2.19,12.76-4.25l73.04-38.76v-89.83ZM12.01,253.41c0,7.85.92,12.98,2.67,16.62,1.49,3.03,3.73,5.3,7.8,8.11l.22.18c.88.61,1.89,1.23,3.07,1.97l1.4.88,4.34,2.63-6.18,10.39-4.87-2.94-.83-.53c-1.4-.88-2.59-1.62-3.64-2.37C4.38,280.46.09,271.87,0,253.94v-.53h12.01ZM116.18,112.68c-.57.18-1.1.44-1.58.66l-77.03,40.82c-.09.04-.18.09-.22.13l-.09.04.13.09.18.09,77.03,40.82c.48.26,1.01.48,1.58.66v-83.3h0ZM128.45,112.68v83.3c.57-.18,1.1-.44,1.58-.66l77.03-40.82c.09-.04.18-.09.22-.13l.04-.04-.13-.09-.18-.09-77.03-40.82c-.44-.22-.96-.48-1.53-.66ZM207.81,67.96l-69.27,36.39,69.27,36.39v-72.78ZM36.39,67.96v72.78l69.27-36.39-69.27-36.39ZM129.94,13.86c-3.99-2.1-11.27-2.1-15.26,0L37.57,54.64c-.09.04-.18.09-.22.13l-.09.04.13.09.18.09,77.12,40.77c3.99,2.1,11.27,2.1,15.26,0l77.12-40.77c.09-.04.18-.09.22-.13l.04-.04-.13-.09-.18-.09L129.94,13.86ZM219.29,17.99l4.87,2.94.83.53c1.4.88,2.59,1.62,3.64,2.37,11.62,7.89,15.91,16.48,16,34.42v.53h-12.01c0-7.85-.92-12.98-2.67-16.62-1.49-3.03-3.73-5.3-7.8-8.11l-.22-.18c-.88-.61-1.89-1.23-3.07-1.97l-1.4-.88-4.34-2.63,6.18-10.39Z"/>
  </g>
</svg>