<?xml version="1.0" encoding="iso-8859-1"?>
<!-- Uploaded to: SVG Repo, www.svgrepo.com, Generator: SVG Repo Mixer Tools -->
<svg fill="#000000" height="800px" width="800px" version="1.1" id="Layer_1" xmlns="http://www.w3.org/2000/svg" xmlns:xlink="http://www.w3.org/1999/xlink" 
	 viewBox="0 0 512 512" xml:space="preserve">
<g>
	<g>
		<path d="M501.333,266.667h-99.221c-14.869-72.939-79.509-128-156.779-128s-141.909,55.061-156.779,128H10.667
			C4.779,266.667,0,271.445,0,277.333c0,0.448,0.213,0.832,0.256,1.28c-0.725,5.312,2.475,10.453,7.787,11.797
			c42.667,10.731,77.291,51.392,77.291,72.256c0,5.781,4.608,10.517,10.389,10.667c6.144-0.192,10.624-4.352,10.923-10.112
			c0.619-11.861,0.427-27.968,0.213-43.456c-0.085-7.36-0.192-14.571-0.192-21.099c0-3.605,0.277-7.125,0.533-10.667h276.245
			c0.277,3.541,0.555,7.061,0.555,10.667l0.043,17.941c0.064,11.755,0.107,23.979-0.043,45.973
			c-0.043,5.461,4.075,10.091,9.515,10.667c0.405,0.064,0.768,0.085,1.152,0.085c4.992,0,9.365-3.477,10.432-8.448
			c9.28-43.84,50.645-76.885,96.235-76.885c5.888,0,10.667-4.779,10.667-10.667S507.221,266.667,501.333,266.667z M160,266.667
			h-49.451c7.36-31.019,25.131-57.984,49.451-77.077V266.667z M234.667,266.667h-53.333v-90.88
			c16.171-8.469,34.219-13.76,53.333-15.232V266.667z M309.333,266.667H256V160.533c19.115,1.472,37.163,6.784,53.333,15.232
			V266.667z M330.667,266.667v-77.077c24.32,19.072,42.091,46.059,49.451,77.077H330.667z"/>
	</g>
</g>
</svg>